<svg width="24" height="24" viewBox="0 0 24 24" fill="none" xmlns="http://www.w3.org/2000/svg">
<path d="M7.5 11C7.22386 11 7 11.2239 7 11.5V13.5C7 13.7761 7.22386 14 7.5 14H10.5C10.7761 14 11 13.7761 11 13.5V11.5C11 11.2239 10.7761 11 10.5 11H7.5Z" fill="#7B858F"/>
<path d="M13.5 11C13.2239 11 13 11.2239 13 11.5V13.5C13 13.7761 13.2239 14 13.5 14H16.5C16.7761 14 17 13.7761 17 13.5V11.5C17 11.2239 16.7761 11 16.5 11H13.5Z" fill="#7B858F"/>
<path d="M7 15.5C7 15.2239 7.22386 15 7.5 15H10.5C10.7761 15 11 15.2239 11 15.5V17.5C11 17.7761 10.7761 18 10.5 18H7.5C7.22386 18 7 17.7761 7 17.5V15.5Z" fill="#7B858F"/>
<path fill-rule="evenodd" clip-rule="evenodd" d="M3 4.99078V20.0651C3 20.5237 3.35219 20.9042 3.81716 20.9844C3.87436 20.9947 3.93325 21 3.9934 21H20.0066C20.0541 21 20.1008 20.9966 20.1464 20.9902C20.6321 20.9243 21 20.5352 21 20.0651V4.99078C21 4.45098 20.5552 4 20.0066 4H18V2.49539C18 2.21575 17.774 2 17.4953 2H16.5047C16.214 2 16 2.22179 16 2.49539V4H8V2.49539C8 2.21575 7.77404 2 7.49532 2H6.50468C6.21404 2 6 2.22179 6 2.49539V4H3.9934C3.44495 4 3 4.44359 3 4.99078ZM5 10V19H19V10H5ZM5 6H19V8H5V6Z" fill="#7B858F"/>
<rect x="13" y="15" width="4" height="3" rx="0.5" fill="#7B858F"/>
</svg>
