<svg width="28" height="28" viewBox="0 0 28 28" fill="none" xmlns="http://www.w3.org/2000/svg">
<path fill-rule="evenodd" clip-rule="evenodd" d="M2.82843 0.353553C2.63316 0.158291 2.31658 0.158291 2.12132 0.353553L0.353553 2.12132C0.158291 2.31658 0.158291 2.63316 0.353553 2.82843L11.1369 13.6118L0.353553 24.3952C0.158291 24.5904 0.158291 24.907 0.353554 25.1023L2.12132 26.8701C2.31658 27.0653 2.63316 27.0653 2.82843 26.8701L13.6118 16.0867L24.3952 26.8701C24.5904 27.0653 24.907 27.0653 25.1023 26.8701L26.8701 25.1023C27.0653 24.907 27.0653 24.5904 26.8701 24.3952L16.0867 13.6118L26.8701 2.82843C27.0653 2.63316 27.0653 2.31658 26.8701 2.12132L25.1023 0.353553C24.907 0.158291 24.5904 0.158291 24.3952 0.353553L13.6118 11.1369L2.82843 0.353553Z" fill="white"/>
</svg>
