<svg width="26" height="26" viewBox="0 0 26 26" fill="none" xmlns="http://www.w3.org/2000/svg">
<path fill-rule="evenodd" clip-rule="evenodd" d="M3.2773 1.03812C3.08203 0.842861 2.76545 0.842862 2.57019 1.03812L1.03812 2.57019C0.842862 2.76545 0.842862 3.08203 1.03812 3.2773L10.7608 13L1.03812 22.7227C0.842861 22.918 0.842862 23.2346 1.03812 23.4298L2.57019 24.9619C2.76545 25.1572 3.08203 25.1572 3.2773 24.9619L13 15.2392L22.7227 24.9619C22.918 25.1572 23.2346 25.1572 23.4298 24.9619L24.9619 23.4298C25.1572 23.2346 25.1572 22.918 24.9619 22.7227L15.2392 13L24.9619 3.2773C25.1572 3.08203 25.1572 2.76545 24.9619 2.57019L23.4298 1.03812C23.2346 0.842862 22.918 0.842862 22.7227 1.03812L13 10.7608L3.2773 1.03812Z" fill="#5E6A75"/>
</svg>
