<svg width="20" height="20" viewBox="0 0 20 20" fill="none" xmlns="http://www.w3.org/2000/svg">
<path d="M5.5 9C5.22386 9 5 9.22386 5 9.5V10.5C5 10.7761 5.22386 11 5.5 11H14.5C14.7761 11 15 10.7761 15 10.5V9.5C15 9.22386 14.7761 9 14.5 9H5.5Z" fill="#0875E1"/>
<path fill-rule="evenodd" clip-rule="evenodd" d="M0 10C0 4.47715 4.47594 0 10 0C15.5228 0 20 4.47594 20 10C20 15.5228 15.5241 20 10 20C4.47715 20 0 15.5241 0 10ZM2 10C2 14.419 5.58131 18 10 18C14.419 18 18 14.4187 18 10C18 5.58101 14.4187 2 10 2C5.58101 2 2 5.58131 2 10Z" fill="#0875E1"/>
</svg>
