<svg width="18" height="20" viewBox="0 0 18 20" fill="none" xmlns="http://www.w3.org/2000/svg">
<path d="M14 0.5C14 0.223858 13.7761 0 13.5 0H0.5C0.223857 0 0 0.223858 0 0.5V18.5C0 18.7761 0.223858 19 0.5 19H9V17H2V2H12V8H14V0.5Z" fill="#0875E1"/>
<path d="M3.5 5C3.22386 5 3 5.22386 3 5.5V6.5C3 6.77614 3.22386 7 3.5 7H8.5C8.77614 7 9 6.77614 9 6.5V5.5C9 5.22386 8.77614 5 8.5 5H3.5Z" fill="#0875E1"/>
<path d="M3 8.5C3 8.22386 3.22386 8 3.5 8H10.5C10.7761 8 11 8.22386 11 8.5V9.5C11 9.77614 10.7761 10 10.5 10H3.5C3.22386 10 3 9.77614 3 9.5V8.5Z" fill="#0875E1"/>
<path d="M14.0426 10.5V15.38L15.518 13.9033C15.7131 13.7081 16.0294 13.7078 16.2248 13.9027L16.9312 14.6069C17.1267 14.8019 17.1272 15.1185 16.9322 15.3141L13.3967 18.8596C13.2013 19.0555 12.884 19.0555 12.6886 18.8596L9.15308 15.3141C8.95809 15.1185 8.95855 14.8019 9.15411 14.6069L9.86051 13.9027C10.0559 13.7078 10.3722 13.7081 10.5672 13.9033L12.0426 15.38V10.5C12.0426 10.2239 12.2665 10 12.5426 10H13.5426C13.8188 10 14.0426 10.2239 14.0426 10.5Z" fill="#0875E1"/>
</svg>
