<svg width="20" height="20" viewBox="0 0 20 20" fill="none" xmlns="http://www.w3.org/2000/svg">
<path d="M9 5.50965V9H5.50965C5.22765 9 5 9.22596 5 9.50468V10.4953C5 10.786 5.22818 11 5.50965 11H9V14.4904C9 14.7723 9.22596 15 9.50468 15H10.4953C10.786 15 11 14.7718 11 14.4904V11H14.4904C14.7723 11 15 10.774 15 10.4953V9.50468C15 9.21404 14.7718 9 14.4904 9H11V5.50965C11 5.22765 10.774 5 10.4953 5H9.50468C9.21404 5 9 5.22818 9 5.50965Z" fill="#0875E1"/>
<path fill-rule="evenodd" clip-rule="evenodd" d="M0 10C0 4.47715 4.47594 0 10 0C15.5228 0 20 4.47594 20 10C20 15.5228 15.5241 20 10 20C4.47715 20 0 15.5241 0 10ZM2 10C2 14.419 5.58131 18 10 18C14.419 18 18 14.4187 18 10C18 5.58101 14.4187 2 10 2C5.58101 2 2 5.58131 2 10Z" fill="#0875E1"/>
</svg>
