<svg width="16" height="16" viewBox="0 0 16 16" fill="none" xmlns="http://www.w3.org/2000/svg">
<path fill-rule="evenodd" clip-rule="evenodd" d="M5.509 14C5.78017 14 6 14.214 6 14.5047V15.4953C6 15.774 5.77212 16 5.509 16H0.499999C0.223857 16 0 15.7761 0 15.5V10.491C0 10.2198 0.214035 10 0.504684 10H1.49532C1.77405 10 2 10.2279 2 10.491V12.7465L6.01855 8.72798C6.21625 8.53027 6.52787 8.52135 6.73339 8.72687L7.43387 9.42735C7.63096 9.62444 7.62997 9.94498 7.43276 10.1422L3.57495 14H5.509ZM10.4722 2C10.201 2 9.98118 1.78596 9.98118 1.49532V0.504684C9.98118 0.225955 10.2091 0 10.4722 0H15.4812C15.7573 0 15.9812 0.223858 15.9812 0.5V5.509C15.9812 5.78017 15.7671 6 15.4765 6H14.4859C14.2071 6 13.9812 5.77212 13.9812 5.509V3.25348L9.96264 7.27202C9.76493 7.46973 9.45331 7.47865 9.24779 7.27313L8.54731 6.57265C8.35022 6.37556 8.35121 6.05502 8.54842 5.85781L12.4062 2H10.4722Z" fill="#0875E1"/>
</svg>
