<svg width="16" height="15" viewBox="0 0 16 15" fill="none" xmlns="http://www.w3.org/2000/svg">
<path d="M3.85192 0.243107C3.92755 0.0939742 4.08057 0 4.24778 0C4.58144 0 4.79579 0.354349 4.64091 0.649882L4.09608 1.68947C4.02081 1.83308 3.87206 1.92306 3.70992 1.92306C3.38474 1.92306 3.17401 1.57992 3.32108 1.2899L3.85192 0.243107Z" fill="#7B858F"/>
<path fill-rule="evenodd" clip-rule="evenodd" d="M7 12C9.11931 12 10.5985 11.1931 11.6304 10.0918C12.0238 10.3499 12.4944 10.5 13 10.5C14.3807 10.5 15.5 9.38072 15.5 8.00001C15.5 6.88875 14.775 5.94684 13.7721 5.62152C13.8651 5.1802 13.9208 4.79953 13.9539 4.51815C13.987 4.23594 13.7633 3.99999 13.4792 3.99999H0.520846C0.236696 3.99999 0.0129572 4.23594 0.0461076 4.51815C0.254271 6.29024 1.36241 12 7 12ZM13 9.00002C12.8325 9.00002 12.6745 8.95882 12.5358 8.88599C12.8956 8.29005 13.1675 7.66648 13.3729 7.07187C13.7405 7.21969 14 7.57955 14 8.00003C14 8.55231 13.5523 9.00002 13 9.00002ZM11.5 6.00001C11.5 6.00001 10.7166 10 6.8042 10C2.89175 10 2.50001 6.00001 2.50001 6.00001H11.5Z" fill="#7B858F"/>
<path d="M0 13.5C0 13.2238 0.223858 13 0.5 13H13.5C13.7761 13 14 13.2238 14 13.5V14.5C14 14.7761 13.7761 15 13.5 15H0.5C0.223857 15 0 14.7761 0 14.5V13.5Z" fill="#7B858F"/>
<path d="M7.24777 0C7.08056 0 6.92754 0.0939742 6.85191 0.243107L6.32108 1.2899C6.17401 1.57992 6.38474 1.92306 6.70991 1.92306C6.87206 1.92306 7.0208 1.83308 7.09607 1.68947L7.6409 0.649882C7.79578 0.354349 7.58143 0 7.24777 0Z" fill="#7B858F"/>
<path d="M9.85192 0.243106C9.92754 0.0939742 10.0806 0 10.2478 0C10.5814 0 10.7958 0.35435 10.6409 0.649882L10.0961 1.68947C10.0208 1.83308 9.87206 1.92306 9.70992 1.92306C9.38474 1.92306 9.17401 1.57992 9.32108 1.2899L9.85192 0.243106Z" fill="#7B858F"/>
</svg>
