<svg width="16" height="16" viewBox="0 0 16 16" fill="none" xmlns="http://www.w3.org/2000/svg">
<g id="Core/Info">
<path id="Fill" fill-rule="evenodd" clip-rule="evenodd" d="M7.99967 1.33333C4.31697 1.33333 1.33301 4.3181 1.33301 8C1.33301 11.6827 4.31778 14.6667 7.99967 14.6667C11.6824 14.6667 14.6663 11.6819 14.6663 8C14.6663 4.31729 11.6816 1.33333 7.99967 1.33333ZM7.99967 13.3333C5.05388 13.3333 2.66634 10.946 2.66634 8C2.66634 5.0542 5.05368 2.66666 7.99967 2.66666C10.9455 2.66666 13.333 5.054 13.333 8C13.333 10.9458 10.9457 13.3333 7.99967 13.3333Z" fill="#DE2E21"/>
<g id="Accent">
<path d="M8.33301 6.66667C8.5171 6.66667 8.66634 6.81591 8.66634 7.00001V11C8.66634 11.1841 8.5171 11.3333 8.33301 11.3333H7.66634C7.48225 11.3333 7.33301 11.1841 7.33301 11V7.00001C7.33301 6.81591 7.48225 6.66667 7.66634 6.66667H8.33301Z" fill="#DE2E21"/>
<path d="M8.66634 5.66667C8.66634 5.85077 8.5171 6.00001 8.33301 6.00001H7.66634C7.48225 6.00001 7.33301 5.85077 7.33301 5.66667V5.00001C7.33301 4.81591 7.48225 4.66667 7.66634 4.66667H8.33301C8.5171 4.66667 8.66634 4.81591 8.66634 5.00001V5.66667Z" fill="#DE2E21"/>
</g>
</g>
</svg>
