<svg width="16" height="20" viewBox="0 0 16 20" fill="none" xmlns="http://www.w3.org/2000/svg">
<path fill-rule="evenodd" clip-rule="evenodd" d="M0 8C0 12.4183 7.64593 19.6554 7.64593 19.6554C7.84148 19.8457 8.16709 19.8388 8.36453 19.6451C8.36453 19.6451 16 12.4183 16 8C16 3.58172 12.4183 0 8 0C3.58172 0 0 3.58172 0 8ZM10.6275 14.2213C9.83073 15.206 8.9724 16.1674 8.11397 17.0626L8.00021 17.1809L7.89481 17.0713C7.03511 16.1748 6.17551 15.2121 5.37754 14.2263C4.50224 13.1449 3.75761 12.1038 3.18636 11.1393C2.40367 9.81786 2 8.72025 2 8C2 4.68629 4.68629 2 8 2C11.3137 2 14 4.68629 14 8C14 8.71932 13.5983 9.81391 12.8191 11.1314C12.2483 12.0967 11.5035 13.1388 10.6275 14.2213ZM8 10C9.10457 10 10 9.10457 10 8C10 6.89543 9.10457 6 8 6C6.89543 6 6 6.89543 6 8C6 9.10457 6.89543 10 8 10ZM8 12C5.79086 12 4 10.2091 4 8C4 5.79086 5.79086 4 8 4C10.2091 4 12 5.79086 12 8C12 10.2091 10.2091 12 8 12Z" fill="#7B858F"/>
</svg>
