<svg width="40" height="40" viewBox="0 0 40 40" fill="none" xmlns="http://www.w3.org/2000/svg">
<path d="M20 40C8.9543 40 0 31.0457 0 20C0 8.9543 8.9543 0 20 0C31.0457 0 40 8.9543 40 20C40 31.0457 31.0457 40 20 40ZM20 38.3333C30.1252 38.3333 38.3333 30.1252 38.3333 20C38.3333 9.87478 30.1252 1.66667 20 1.66667C9.87478 1.66667 1.66667 9.87478 1.66667 20C1.66667 30.1252 9.87478 38.3333 20 38.3333ZM18.7707 14.3859C18.6108 14.226 18.609 13.9579 18.7733 13.7936L19.357 13.2099C19.5283 13.0386 19.7864 13.0445 19.9492 13.2073L26.4306 19.6887C26.5102 19.7683 26.5506 19.8746 26.5509 19.9816C26.5538 20.0928 26.5116 20.1974 26.4306 20.2784L19.9492 26.7598C19.7893 26.9197 19.5213 26.9215 19.357 26.7573L18.7733 26.1735C18.602 26.0023 18.6079 25.7441 18.7707 25.5813L23.5228 20.8292H13.8335C13.6063 20.8292 13.4167 20.6409 13.4167 20.4086V19.5831C13.4167 19.3409 13.6033 19.1625 13.8335 19.1625H23.5474L18.7707 14.3859Z" fill="#0875E1"/>
</svg>
