<svg width="40" height="40" viewBox="0 0 40 40" fill="none" xmlns="http://www.w3.org/2000/svg">
<path d="M20 40C8.9543 40 0 31.0457 0 20C0 8.9543 8.9543 0 20 0C31.0457 0 40 8.9543 40 20C40 31.0457 31.0457 40 20 40ZM20 38.3333C30.1252 38.3333 38.3333 30.1252 38.3333 20C38.3333 9.87478 30.1252 1.66667 20 1.66667C9.87478 1.66667 1.66667 9.87478 1.66667 20C1.66667 30.1252 9.87478 38.3333 20 38.3333ZM21.197 14.3859L16.4203 19.1625H26.1342C26.3644 19.1625 26.551 19.3409 26.551 19.5831V20.4086C26.551 20.6409 26.3614 20.8292 26.1342 20.8292H16.4449L21.197 25.5813C21.3598 25.7441 21.3657 26.0023 21.1944 26.1735L20.6107 26.7573C20.4465 26.9215 20.1784 26.9197 20.0185 26.7598L13.5371 20.2784C13.4561 20.1974 13.4139 20.0928 13.4168 19.9816C13.4171 19.8746 13.4575 19.7683 13.5371 19.6887L20.0185 13.2073C20.1813 13.0445 20.4394 13.0386 20.6107 13.2099L21.1944 13.7936C21.3587 13.9579 21.3569 14.226 21.197 14.3859Z" fill="#0875E1"/>
</svg>
