<svg width="32" height="32" viewBox="0 0 32 32" fill="none" xmlns="http://www.w3.org/2000/svg">
  <path fill-rule="evenodd" clip-rule="evenodd" d="M16 32C24.8366 32 32 24.8366 32 16C32 7.16344 24.8366 0 16 0C7.16344 0 0 7.16344 0 16C0 24.8366 7.16344 32 16 32Z" fill="#005CB9"/>
  <mask id="mask0" mask-type="alpha" maskUnits="userSpaceOnUse" x="0" y="0" width="32" height="32">
    <path fill-rule="evenodd" clip-rule="evenodd" d="M16 32C24.8366 32 32 24.8366 32 16C32 7.16344 24.8366 0 16 0C7.16344 0 0 7.16344 0 16C0 24.8366 7.16344 32 16 32Z" fill="white"/>
  </mask>
  <g mask="url(#mask0)">
    <rect x="2" y="2" width="28" height="28" fill="#005CB9"/>
    <path fill-rule="evenodd" clip-rule="evenodd" d="M23.5 22.9338C23.5 23.1754 23.3041 23.3713 23.0625 23.3713H9.9375C9.69588 23.3713 9.5 23.1754 9.5 22.9338V21.6217C9.5 19 11.4649 17.0741 13.6619 16.0981C12.7213 15.2156 12.125 13.9026 12.125 12.4364C12.125 9.77912 14.0838 7.625 16.5 7.625C18.9162 7.625 20.875 9.77912 20.875 12.4364C20.875 13.9019 20.2792 15.2144 19.3394 16.0969C21.5384 17.0722 23.5 18.9956 23.5 21.6217V22.9338ZM11.3228 21.6217H21.75C21.75 19 19.5625 17.2477 16.5 17.2477C13.4375 17.2477 11.25 19 11.3228 21.6217ZM16.5 15.4981C17.9497 15.4981 19.125 14.1273 19.125 12.4364C19.125 10.7454 17.9497 9.37459 16.5 9.37459C15.0503 9.37459 13.875 10.7454 13.875 12.4364C13.875 14.1273 15.0503 15.4981 16.5 15.4981Z" fill="white"/>
  </g>
</svg>
