<svg width="120" height="120" viewBox="0 0 120 120" fill="none" xmlns="http://www.w3.org/2000/svg">
<path fill-rule="evenodd" clip-rule="evenodd" d="M60 120C93.1371 120 120 93.1371 120 60C120 26.8629 93.1371 0 60 0C26.8629 0 0 26.8629 0 60C0 93.1371 26.8629 120 60 120Z" fill="#0875E1"/>
<path fill-rule="evenodd" clip-rule="evenodd" d="M84.889 86.4312C84.889 87.2903 84.1925 87.9867 83.3334 87.9867H36.6667C35.8076 87.9867 35.1112 87.2903 35.1112 86.4312V81.766C35.1112 72.4444 42.0974 65.5967 49.9089 62.1264C46.5649 58.9887 44.4445 54.3202 44.4445 49.1071C44.4445 39.6591 51.409 32 60.0001 32C68.5912 32 75.5556 39.6591 75.5556 49.1071C75.5556 54.3178 73.4372 58.9845 70.0958 62.1222C77.9144 65.5899 84.889 72.4289 84.889 81.766V86.4312ZM41.5924 81.766H78.6667C78.6667 72.4444 70.889 66.2141 60.0001 66.2141C49.1112 66.2141 41.3334 72.4444 41.5924 81.766ZM60.0001 59.9934C65.1547 59.9934 69.3334 55.1194 69.3334 49.1071C69.3334 43.0947 65.1547 38.2207 60.0001 38.2207C54.8454 38.2207 50.6667 43.0947 50.6667 49.1071C50.6667 55.1194 54.8454 59.9934 60.0001 59.9934Z" fill="white"/>
</svg>
