<svg width="24" height="24" viewBox="0 0 24 24" fill="none" xmlns="http://www.w3.org/2000/svg">
<path d="M13.0958 16.3595C13.0959 16.3594 13.0957 16.3597 13.0958 16.3595L12.3527 17.1031C12.2062 17.2497 11.9914 17.2863 11.8108 17.213C11.7506 17.1886 11.6942 17.152 11.6454 17.1031L10.9026 16.3599C10.9027 16.36 10.9025 16.3598 10.9026 16.3599L3.14683 8.59942C2.95171 8.40419 2.95171 8.08777 3.14683 7.89253L3.88961 7.1493C4.08489 6.9539 4.40164 6.9539 4.59693 7.1493L11.999 14.5559L19.4011 7.1493C19.5964 6.9539 19.9131 6.9539 20.1084 7.1493L20.8512 7.89253C21.0463 8.08777 21.0463 8.40419 20.8512 8.59942L13.0958 16.3595Z" fill="black"/>
</svg>
