<svg width="24" height="24" viewBox="0 0 24 24" fill="none" xmlns="http://www.w3.org/2000/svg">
<path fill-rule="evenodd" clip-rule="evenodd" d="M11.8693 16.6017L7.29432 11.9956L11.8693 7.38948C12.0398 7.21789 12.0398 6.94092 11.8693 6.76933L11.2342 6.12993C11.063 5.95752 10.7844 5.95657 10.612 6.12782L10.6099 6.12993L5.12782 11.6492C5.03341 11.7443 4.9913 11.8717 5.00149 11.9956C4.9913 12.1195 5.03341 12.2469 5.12782 12.3419L10.6099 17.8612C10.7811 18.0336 11.0597 18.0346 11.2321 17.8633L11.2342 17.8612L11.8693 17.2218C12.0398 17.0502 12.0398 16.7733 11.8693 16.6017ZM17.8693 16.6017L13.2943 11.9956L17.8693 7.38948C18.0398 7.21789 18.0398 6.94092 17.8693 6.76933L17.2342 6.12993C17.063 5.95752 16.7844 5.95657 16.612 6.12782L16.6099 6.12993L11.1278 11.6492C11.0334 11.7443 10.9913 11.8717 11.0015 11.9956C10.9913 12.1195 11.0334 12.2469 11.1278 12.3419L16.6099 17.8612C16.7811 18.0336 17.0597 18.0346 17.2321 17.8633L17.2342 17.8612L17.8693 17.2218C18.0398 17.0502 18.0398 16.7733 17.8693 16.6017Z" fill="#0875e1"/>
</svg>
