<svg width="19" height="14" viewBox="0 0 19 14" fill="none" xmlns="http://www.w3.org/2000/svg">
<path d="M1 0C0.723858 0 0.5 0.223858 0.5 0.5V1.5C0.5 1.77614 0.723858 2 1 2H4C4.27614 2 4.5 1.77614 4.5 1.5V0.5C4.5 0.223858 4.27614 0 4 0H1Z" fill="#333333"/>
<path d="M1 4C0.723858 4 0.5 4.22386 0.5 4.5V5.5C0.5 5.77614 0.723858 6 1 6H4C4.27614 6 4.5 5.77614 4.5 5.5V4.5C4.5 4.22386 4.27614 4 4 4H1Z" fill="#333333"/>
<path d="M0.5 8.5C0.5 8.22386 0.723858 8 1 8H4C4.27614 8 4.5 8.22386 4.5 8.5V9.5C4.5 9.77614 4.27614 10 4 10H1C0.723858 10 0.5 9.77614 0.5 9.5V8.5Z" fill="#333333"/>
<path d="M1 12C0.723858 12 0.5 12.2239 0.5 12.5V13.5C0.5 13.7761 0.723858 14 1 14H4C4.27614 14 4.5 13.7761 4.5 13.5V12.5C4.5 12.2239 4.27614 12 4 12H1Z" fill="#333333"/>
<path d="M6.5 0.5C6.5 0.223858 6.72386 0 7 0H18C18.2761 0 18.5 0.223858 18.5 0.5V1.5C18.5 1.77614 18.2761 2 18 2H7C6.72386 2 6.5 1.77614 6.5 1.5V0.5Z" fill="#333333"/>
<path d="M7 4C6.72386 4 6.5 4.22386 6.5 4.5V5.5C6.5 5.77614 6.72386 6 7 6H18C18.2761 6 18.5 5.77614 18.5 5.5V4.5C18.5 4.22386 18.2761 4 18 4H7Z" fill="#333333"/>
<path d="M6.5 8.5C6.5 8.22386 6.72386 8 7 8H18C18.2761 8 18.5 8.22386 18.5 8.5V9.5C18.5 9.77614 18.2761 10 18 10H7C6.72386 10 6.5 9.77614 6.5 9.5V8.5Z" fill="#333333"/>
<path d="M7 12C6.72386 12 6.5 12.2239 6.5 12.5V13.5C6.5 13.7761 6.72386 14 7 14H18C18.2761 14 18.5 13.7761 18.5 13.5V12.5C18.5 12.2239 18.2761 12 18 12H7Z" fill="#333333"/>
</svg>
