<svg width="11" height="12" viewBox="0 0 11 12" fill="none" xmlns="http://www.w3.org/2000/svg">
<path d="M9.37478 0C9.16767 0 8.99978 0.167893 8.99978 0.375V11.625C8.99978 11.8321 9.16767 12 9.37478 12H10.1248C10.3319 12 10.4998 11.8321 10.4998 11.625V0.375C10.4998 0.167893 10.3319 0 10.1248 0H9.37478Z" fill="#333333"/>
<path d="M3.98239 3.65276C3.82825 3.8069 3.83132 4.03699 3.97513 4.1808L5.00081 5.20649L0.908991 5.20648C0.699813 5.20648 0.529297 5.37595 0.529297 5.585V6.32797C0.529297 6.54596 0.699292 6.70649 0.908991 6.70649H5.1713L3.97513 7.90265C3.83559 8.0422 3.83457 8.28288 3.98239 8.4307L4.50775 8.95606C4.66189 9.1102 4.89198 9.10713 5.03579 8.96332L7.69221 6.30689C7.83866 6.16045 7.83866 5.92301 7.69221 5.77656L5.03579 3.12014C4.89625 2.9806 4.65557 2.97958 4.50775 3.1274L3.98239 3.65276Z" fill="#333333"/>
</svg>
