<svg width="18" height="11" viewBox="0 0 18 11" fill="none" xmlns="http://www.w3.org/2000/svg">
<path d="M10.0958 9.35973C10.0957 9.35984 10.0959 9.35962 10.0958 9.35973L9.35268 10.1033C9.20621 10.2498 8.99143 10.2865 8.8108 10.2132C8.75059 10.1888 8.69418 10.1521 8.64536 10.1033L7.90258 9.36006C7.90246 9.35993 7.9027 9.36018 7.90258 9.36006L0.146828 1.59961C-0.0482915 1.40437 -0.0482916 1.08795 0.146828 0.892713L0.889608 0.149483C1.08489 -0.0459216 1.40164 -0.0459206 1.59693 0.149483L8.99902 7.55606L16.4011 0.149483C16.5964 -0.0459216 16.9131 -0.0459216 17.1084 0.149483L17.8512 0.892713C18.0463 1.08795 18.0463 1.40437 17.8512 1.59961L10.0958 9.35973Z" fill="#0875E1"/>
</svg>
