<svg width="12" height="7" viewBox="0 0 12 7" fill="none" xmlns="http://www.w3.org/2000/svg">
<path fill-rule="evenodd" clip-rule="evenodd" d="M6.00443 4.70568L10.6105 0.130677C10.7821 -0.0397517 11.0591 -0.0397516 11.2307 0.130677L11.8701 0.765768C11.8708 0.766468 11.8715 0.76717 11.8722 0.767875C12.0434 0.940286 12.0425 1.21888 11.8701 1.39012L6.35076 6.87218C6.25571 6.96659 6.12833 7.0087 6.00443 6.99851C5.88053 7.0087 5.75314 6.96659 5.65809 6.87218L0.138784 1.39012C0.138079 1.38942 0.137377 1.38872 0.136677 1.38802C-0.0345705 1.21561 -0.0336276 0.937014 0.138784 0.765767L0.77819 0.130676C0.949777 -0.0397525 1.22675 -0.0397525 1.39833 0.130676L6.00443 4.70568Z" fill="#7B858F"/>
</svg>
