<svg width="18" height="11" viewBox="0 0 18 11" fill="none" xmlns="http://www.w3.org/2000/svg">
<path d="M10.0958 9.35955C10.0957 9.35966 10.0959 9.35944 10.0958 9.35955L9.35268 10.1031C9.20621 10.2497 8.99143 10.2863 8.8108 10.213C8.75059 10.1886 8.69418 10.152 8.64536 10.1031L7.90258 9.35987C7.90246 9.35975 7.9027 9.36 7.90258 9.35987L0.146828 1.59942C-0.0482915 1.40419 -0.0482916 1.08777 0.146828 0.89253L0.889608 0.1493C1.08489 -0.0461047 1.40164 -0.0461037 1.59693 0.1493L8.99902 7.55588L16.4011 0.1493C16.5964 -0.0461047 16.9131 -0.0461047 17.1084 0.1493L17.8512 0.89253C18.0463 1.08777 18.0463 1.40419 17.8512 1.59942L10.0958 9.35955Z" fill="black"/>
</svg>